<?xml version="1.0" encoding="UTF-8"?>
<svg id="Layer_4" data-name="Layer 4" xmlns="http://www.w3.org/2000/svg" viewBox="0 0 875.34 290.27">
  <defs>
    <style>
      .cls-1 {
        fill: #231f20;
      }

      .cls-2 {
        fill: #85908a;
      }

      .cls-3 {
        fill: #85908a;
      }
    </style>
  </defs>
  <g>
    <path class="cls-1" d="M162.17,214.71c0,3.2-.72,5.55-2.17,7.05-1.45,1.5-3.38,2.25-5.78,2.25h-44.7c-3.7,0-6.65-1.1-8.85-3.3-2.2-2.2-3.3-5.15-3.3-8.85v-66.9c0-3.8,1.1-6.77,3.3-8.92,2.2-2.15,5.15-3.23,8.85-3.23h49.5c.7.9,1.28,2.1,1.73,3.6.45,1.5.67,3.15.67,4.95,0,3.2-.7,5.58-2.1,7.13-1.4,1.55-3.35,2.32-5.85,2.32h-33.9v17.55h35.25c.6,1,1.15,2.25,1.65,3.75s.75,3.15.75,4.95c0,3.2-.72,5.55-2.17,7.05-1.45,1.5-3.38,2.25-5.78,2.25h-29.7v19.5h40.2c.6.9,1.15,2.15,1.65,3.75.5,1.6.75,3.3.75,5.1Z"/>
    <path class="cls-1" d="M200.12,135.21v88.35c-1,.3-2.4.58-4.2.83s-3.75.37-5.85.37c-4.2,0-7.3-.75-9.3-2.25s-3-4.2-3-8.1v-88.35c1-.3,2.4-.6,4.2-.9,1.8-.3,3.75-.45,5.85-.45,4.3,0,7.43.75,9.38,2.25,1.95,1.5,2.92,4.25,2.92,8.25Z"/>
    <path class="cls-1" d="M283.37,188.16c1.7-1.6,2.55-3.95,2.55-7.05,0-6.2-1.45-11.65-4.35-16.35-2.9-4.7-6.92-8.42-12.07-11.17-5.15-2.75-11.18-4.13-18.08-4.13-4.7,0-9.22.75-13.57,2.25-4.35,1.5-8.25,3.78-11.7,6.83-3.45,3.05-6.2,6.92-8.25,11.62-2.05,4.7-3.08,10.25-3.08,16.65,0,8.7,1.75,15.95,5.25,21.75s8.33,10.15,14.48,13.05c6.15,2.9,13.07,4.35,20.77,4.35,5.3,0,10.03-.5,14.18-1.5s7.4-2.5,9.75-4.5c2.35-2,3.52-4.5,3.52-7.5,0-1.8-.47-3.5-1.42-5.1-.95-1.6-2.18-2.85-3.68-3.75-2.3,1.3-5.3,2.55-9,3.75-3.7,1.2-7.65,1.8-11.85,1.8-5.2,0-9.7-1.17-13.5-3.52-3.04-1.88-5.15-4.77-6.33-8.67l39.33-5.81c3-.4,5.35-1.4,7.05-3ZM235.62,181.97c.41-4.86,1.98-8.67,4.7-11.43,3-3.05,6.75-4.58,11.25-4.58s7.55,1.2,9.75,3.6c2.2,2.4,3.4,5,3.6,7.8l-29.3,4.61Z"/>
    <path class="cls-1" d="M352.37,133.86c0,1.8-.37,3.4-1.12,4.8-.75,1.4-1.58,2.5-2.48,3.3-1.9-.6-3.95-1.1-6.15-1.5-2.2-.4-4.65-.6-7.35-.6-4.7,0-8.25.85-10.65,2.55-2.4,1.7-3.6,4.55-3.6,8.55v6h25.8c.5.8,1,1.95,1.5,3.45s.75,3.15.75,4.95c0,3.1-.67,5.33-2.02,6.68-1.35,1.35-3.23,2.02-5.63,2.02h-19.35v49.5c-1,.3-2.4.58-4.2.83-1.8.25-3.75.37-5.85.37-4.2,0-7.27-.75-9.22-2.25-1.95-1.5-2.93-4.2-2.93-8.1v-64.2c0-6.6,1.37-11.95,4.13-16.05,2.75-4.1,6.55-7.12,11.4-9.07,4.85-1.95,10.22-2.93,16.12-2.93,7,0,12.23.93,15.68,2.78,3.45,1.85,5.17,4.82,5.17,8.92Z"/>
    <path class="cls-1" d="M388.53,149.46c10.4,0,18.7,2.17,24.9,6.52,6.2,4.35,9.3,11.08,9.3,20.18v34.05c0,2.5-.65,4.53-1.95,6.08-1.3,1.55-2.95,2.88-4.95,3.97-3,1.8-6.73,3.23-11.18,4.28-4.45,1.05-9.52,1.57-15.22,1.57-10.2,0-18.33-2-24.38-6-6.05-4-9.07-9.95-9.07-17.85,0-6.8,2.1-12.02,6.3-15.67,4.2-3.65,10.45-5.87,18.75-6.67l19.95-2.1v-1.8c0-3.4-1.33-5.85-3.98-7.35-2.65-1.5-6.43-2.25-11.32-2.25-3.8,0-7.53.45-11.18,1.35-3.65.9-6.93,1.95-9.82,3.15-1.2-.8-2.23-2.03-3.07-3.68-.85-1.65-1.28-3.38-1.28-5.17,0-4.2,2.3-7.25,6.9-9.15,2.9-1.2,6.27-2.07,10.12-2.62,3.85-.55,7.57-.83,11.17-.83ZM389.43,209.46c2.3,0,4.57-.23,6.82-.67,2.25-.45,3.87-.98,4.88-1.58v-14.4l-12.6,1.2c-3.4.2-6.1.9-8.1,2.1-2,1.2-3,3-3,5.4s.95,4.33,2.85,5.78c1.9,1.45,4.95,2.17,9.15,2.17Z"/>
    <path class="cls-1" d="M570.1,209.76c.65,1.3.98,2.8.98,4.5,0,3.4-1.4,6.2-4.2,8.4-2.8,2.2-7.5,3.3-14.1,3.3-8.4,0-14.93-1.9-19.58-5.7-4.65-3.8-6.97-10-6.97-18.6v-67.65c1-.3,2.4-.62,4.2-.97,1.8-.35,3.7-.53,5.7-.53,4.3,0,7.4.75,9.3,2.25,1.9,1.5,2.85,4.25,2.85,8.25v10.35h20.85c.5.8,1,1.95,1.5,3.45s.75,3.15.75,4.95c0,3-.68,5.2-2.03,6.6-1.35,1.4-3.17,2.1-5.47,2.1h-15.6v29.7c0,2.8.9,4.85,2.7,6.15,1.8,1.3,4.35,1.95,7.65,1.95,1.5,0,3.12-.17,4.87-.52,1.75-.35,3.23-.78,4.43-1.28.8.9,1.52,2,2.17,3.3Z"/>
    <path class="cls-1" d="M649.65,70.67c-2.3-2.29-5.3-3.45-9-3.45s-6.58,1.16-8.93,3.45c-2.35,2.31-3.52,5.16-3.52,8.55s1.17,6.15,3.52,8.55c2.35,2.4,5.33,3.6,8.93,3.6s6.7-1.2,9-3.6,3.45-5.25,3.45-8.55-1.15-6.24-3.45-8.55Z"/>
    <path class="cls-1" d="M607.53,161.76v61.8c-.9.3-2.25.58-4.05.83s-3.75.37-5.85.37c-4.3,0-7.43-.75-9.38-2.25-1.95-1.5-2.92-4.2-2.92-8.1v-61.8c.9-.3,2.27-.6,4.12-.9,1.85-.3,3.83-.45,5.93-.45,4.3,0,7.4.73,9.3,2.18,1.9,1.45,2.85,4.22,2.85,8.32Z"/>
    <path class="cls-1" d="M681.92,150.21c3.1,0,5.67.67,7.72,2.02,2.05,1.35,3.07,3.63,3.07,6.83,0,1.8-.5,4.6-1.5,8.4-1,3.8-2.32,8.2-3.97,13.2-1.65,5-3.48,10.1-5.48,15.3-2,5.2-4,10.08-6,14.62-2,4.55-3.8,8.33-5.4,11.33-1.1.8-2.85,1.53-5.25,2.17-2.4.65-5.05.98-7.95.98-3.4,0-6.33-.45-8.78-1.35-2.45-.9-4.18-2.3-5.18-4.2-1.1-2.1-2.45-5.05-4.05-8.85-1.6-3.8-3.3-8.12-5.1-12.98-1.8-4.85-3.6-9.87-5.4-15.08-1.8-5.2-3.45-10.2-4.95-15-1.5-4.8-2.7-9-3.6-12.6,1.3-1.3,2.97-2.42,5.02-3.38,2.05-.95,4.28-1.42,6.68-1.42,3.1,0,5.65.65,7.65,1.95,2,1.3,3.45,3.75,4.35,7.35l6.75,23.85c.8,2.8,1.62,5.6,2.48,8.4.85,2.8,1.62,5.4,2.32,7.8.7,2.4,1.3,4.45,1.8,6.15h.6c2.4-8.1,4.82-16.77,7.28-26.02,2.45-9.25,4.62-18.27,6.52-27.08,3-1.6,6.45-2.4,10.35-2.4Z"/>
    <path class="cls-1" d="M769.67,188.16c1.7-1.6,2.55-3.95,2.55-7.05,0-6.2-1.45-11.65-4.35-16.35-2.9-4.7-6.92-8.42-12.07-11.17-5.15-2.75-11.18-4.13-18.08-4.13-4.7,0-9.22.75-13.57,2.25s-8.25,3.78-11.7,6.83c-3.45,3.05-6.2,6.92-8.25,11.62-2.05,4.7-3.08,10.25-3.08,16.65,0,8.7,1.75,15.95,5.25,21.75s8.33,10.15,14.48,13.05c6.15,2.9,13.07,4.35,20.77,4.35,5.3,0,10.03-.5,14.18-1.5,4.15-1,7.4-2.5,9.75-4.5,2.35-2,3.52-4.5,3.52-7.5,0-1.8-.47-3.5-1.42-5.1-.95-1.6-2.18-2.85-3.68-3.75-2.3,1.3-5.3,2.55-9,3.75-3.7,1.2-7.65,1.8-11.85,1.8-5.2,0-9.7-1.17-13.5-3.52-3.04-1.88-5.15-4.77-6.33-8.67l39.33-5.81c3-.4,5.35-1.4,7.05-3ZM721.92,181.97c.41-4.86,1.98-8.67,4.7-11.43,3-3.05,6.75-4.58,11.25-4.58s7.55,1.2,9.75,3.6c2.2,2.4,3.4,5,3.6,7.8l-29.3,4.61Z"/>
  </g>
  <path class="cls-2" d="M440.11,167.9c.48-2.32,1.34-4,2-5.26.59-1.13,1.13-2,2.37-3.57.02-.02.35-.64.33-.66-3.24-3.07-5.44-2.33-6.82-2.05-5.91,1.19-14.6,14.85-15.39,15.88-.43.56-1.12-2.99,0-4.26,7.26-8.3,12.71-15.89,20.53-15.2,1.24.11,3.08.67,5.17,2.04.02.01.05.01.06,0,11.34-11.01,17.86-12.65,23.37-14.27,6.12-1.79,9.61-1.97,18.03-1.03,7.24.79,13.35,6.02,18.23,10.5,4.88,4.48,7.37,10.18,7.49,17.13v55.77s-.02.05-.05.05h-20.62s-.05-.02-.05-.05v-25.3c-.12-4.04-1.23-7.29-3.33-9.75-2.1-2.46-5.43-5.65-9.99-5.77-4.19,0-7.99,1.29-11.38,3.88-3.4,2.58-5.99,6.11-7.77,10.6-1.79,4.48-2.68,8.73-2.68,14.67v11.68s-.02.05-.05.05h-19.7s-.05-.02-.05-.05c-.03-4.38-.31-48.35,0-52.74.08-1.17.31-2.27.31-2.27Z"/>
  <path class="cls-3" d="M633.31,116.63c-7.48,6.56-14.03,24.6-24.43,27.95-9.98,3.21-28.77-2.79-38.15-7.31-10.05-4.84-16.88-11.74-25.73-16.86-5.23-3.02-15.64-6.54-20.95-2.72-3.74,2.7-8.55,12.6-10.51,17.21-1.34,3.15-1.56,8.54-4.05,6.82-2.77-1.92-4.08-2.15-5.42-3.62-3.5-3.83-15.02-10.65-19.76-14.66-15.46-13.05-20.9-35.19-4.28-49.99,6.69-5.96,14.4-7.71,23.19-5.59,6.48,1.57,10.11,7.53,13.3,12.92,2.4-.16,3.9-2.17,6.18-3.1,16.29-6.65,34.6,14.67,42.93,26.4,1.16,1.64,1.88,4.42,2.97,5.9.89,1.22,2.54,1.97,3.27,3.15.86,1.38,1.09,4.73,2.38,5.83,1,.85,2.42.79,3.47,1.48,1.73,1.13,3.29,3.59,4.94,4.95,7.56,6.21,16.71,7.62,25.19,2.08,11.39-7.46,9.96-20.02,23.67-27.6,8.8-4.87,12.67-4.58,12.29,6.1-.36,10.23-4.4,5.32-10.48,10.66Z"/>
</svg>