<svg xmlns="http://www.w3.org/2000/svg" viewBox="0 0 875.34 290.27">
  <defs>
    <style>
      .elephant-main { fill: #85908a; }
      .elephant-ears { fill: #85908a; }
    </style>
  </defs>
  <path class="elephant-main" d="M440.11,167.9c.48-2.32,1.34-4,2-5.26.59-1.13,1.13-2,2.37-3.57.02-.02.35-.64.33-.66-3.24-3.07-5.44-2.33-6.82-2.05-5.91,1.19-14.6,14.85-15.39,15.88-.43.56-1.12-2.99,0-4.26,7.26-8.3,12.71-15.89,20.53-15.2,1.24.11,3.08.67,5.17,2.04.02.01.05.01.06,0,11.34-11.01,17.86-12.65,23.37-14.27,6.12-1.79,9.61-1.97,18.03-1.03,7.24.79,13.35,6.02,18.23,10.5,4.88,4.48,7.37,10.18,7.49,17.13v55.77s-.02.05-.05.05h-20.62s-.05-.02-.05-.05v-25.3c-.12-4.04-1.23-7.29-3.33-9.75-2.1-2.46-5.43-5.65-9.99-5.77-4.19,0-7.99,1.29-11.38,3.88-3.4,2.58-5.99,6.11-7.77,10.6-1.79,4.48-2.68,8.73-2.68,14.67v11.68s-.02.05-.05.05h-19.7s-.05-.02-.05-.05c-.03-4.38-.31-48.35,0-52.74.08-1.17.31-2.27.31-2.27Z"/>
  <path class="elephant-ears" d="M633.31,116.63c-7.48,6.56-14.03,24.6-24.43,27.95-9.98,3.21-28.77-2.79-38.15-7.31-10.05-4.84-16.88-11.74-25.73-16.86-5.23-3.02-15.64-6.54-20.95-2.72-3.74,2.7-8.55,12.6-10.51,17.21-1.34,3.15-1.56,8.54-4.05,6.82-2.77-1.92-4.08-2.15-5.42-3.62-3.5-3.83-15.02-10.65-19.76-14.66-15.46-13.05-20.9-35.19-4.28-49.99,6.69-5.96,14.4-7.71,23.19-5.59,6.48,1.57,10.11,7.53,13.3,12.92,2.4-.16,3.9-2.17,6.18-3.1,16.29-6.65,34.6,14.67,42.93,26.4,1.16,1.64,1.88,4.42,2.97,5.9.89,1.22,2.54,1.97,3.27,3.15.86,1.38,1.09,4.73,2.38,5.83,1,.85,2.42.79,3.47,1.48,1.73,1.13,3.29,3.59,4.94,4.95,7.56,6.21,16.71,7.62,25.19,2.08,11.39-7.46,9.96-20.02,23.67-27.6,8.8-4.87,12.67-4.58,12.29,6.1-.36,10.23-4.4,5.32-10.48,10.66Z"/>
</svg>